<?xml version="1.0" encoding="utf-8"?>
<!-- Generator: Adobe Illustrator 24.0.1, SVG Export Plug-In . SVG Version: 6.00 Build 0)  -->
<svg version="1.1" id="Layer_1" xmlns="http://www.w3.org/2000/svg" xmlns:xlink="http://www.w3.org/1999/xlink" x="0px" y="0px"
	 viewBox="0 0 301.4 526.5" style="enable-background:new 0 0 301.4 526.5;" xml:space="preserve">
<style type="text/css">
	.st0{fill:#133444;}
	.st1{fill:#C42370;}
	.st2{fill:#1C4D6B;}
	.st3{fill:#1D4259;}
	.st4{fill:#4B6B9A;}
	.st5{fill:#343535;}
	.st6{fill:#3E5578;}
	.st7{fill:#6DB2D8;}
	.st8{fill:#335F8A;}
	.st9{fill:#529BBA;}
</style>
<g id="Layer_2_1_">
	<g id="Layer_1-2">
		<polygon class="st0" points="4.5,262.1 15.4,257.3 150.7,198.5 296.9,262.1 242,375.5 107.7,394.5 6.7,285.5 		"/>
		<path class="st1" d="M266.5,192.1c-24.1-29.1-58.4-48-95.8-53c-0.8-0.1-1.6-0.2-2.4-0.3c-11.7-1.4-23.5-1.4-35.2,0
			c-0.8,0.1-1.6,0.2-2.4,0.3c-37.5,5-71.7,23.9-95.8,53l0,0l-6.1,10.1L18.7,219l-7.4,12.3l0,0c-0.1,0.3-0.3,0.7-0.4,1l-0.1,0.2
			l16.4,9.7l103.5,61.3l20,11.8V168.8l-20,9.1V156l20-9.1l20,9.1l101.9,46.3L266.5,192.1z"/>
		<path class="st2" d="M301.4,298.5c0,48.8-23.2,94.4-59.1,123.8c-14.1,11.6-30.3,20.6-47.6,26.4c-14.2,4.7-29,7.1-43.9,7.1
			C67.5,455.8,0,381.8,0,298.5C0,286.2,1.5,274,4.4,262l146.3,86.6l146.2-86.5C299.9,274,301.4,286.3,301.4,298.5z"/>
		<polygon points="133.1,138.9 150.7,146.9 130.7,156 130.7,137.8 		"/>
		<polygon points="130.7,177.9 150.7,168.8 150.7,315.4 130.7,303.5 		"/>
		<polygon class="st3" points="150.7,168.8 150.7,315.4 290.8,232.5 		"/>
		<polygon class="st4" points="150.7,0 150.7,168.8 290.8,232.5 		"/>
		<path class="st5" d="M150.7,168.8v146.5l-20-11.8l-120-71l-0.2-0.1l0.3-0.1c0.1-0.3,0.3-0.7,0.4-1l0,0l17.5-29.1l102-46.2v22
			L150.7,168.8z"/>
		<polygon class="st6" points="150.7,168.8 150.7,315.4 130.7,303.5 10.7,232.6 10.6,232.5 10.8,232.4 130.7,177.9 		"/>
		<polygon class="st7" points="150.7,0 150.7,168.8 10.6,232.5 		"/>
		<path class="st8" d="M94,443.8c2.1,0.9,4.2,1.8,6.3,2.6C98.2,445.6,96.1,444.8,94,443.8z"/>
		<path class="st8" d="M100.3,446.4c2.1,0.8,4.3,1.6,6.5,2.3C104.6,448,102.4,447.3,100.3,446.4z"/>
		<path class="st8" d="M112.3,450.5c1.7,0.5,3.3,0.9,5,1.3C115.7,451.4,114,450.9,112.3,450.5z"/>
		<path class="st7" d="M4.5,262.1l146.2,86.5c-2,13.2-5.5,26-10.5,38.4c-11.7,28.3-35.3,58.2-81.1,35.4l0,0
			C23.1,393,0,347.3,0,298.5C0,286.3,1.5,274,4.5,262.1z"/>
		<path class="st9" d="M242.2,422.4l-0.4,0.3c-0.8,0.6-1.5,1.2-2.3,1.8l-0.2,0.2c-0.8,0.7-1.7,1.3-2.5,1.9c-0.9,0.7-1.8,1.4-2.8,2
			s-1.9,1.3-2.8,2s-1.7,1.1-2.5,1.7l-0.5,0.3c-0.9,0.6-1.8,1.1-2.6,1.7c-0.1,0.1-0.2,0.1-0.3,0.2c-0.9,0.6-1.8,1.1-2.7,1.6
			s-2,1.2-3,1.7c-1,0.6-2,1.1-3,1.6l-0.1,0.1c-1,0.5-2,1-3,1.5s-2,1-3.1,1.5s-2.1,1-3.1,1.4c-2.1,0.9-4.2,1.8-6.3,2.6
			c-2.1,0.8-4.3,1.6-6.5,2.3c-0.9,0.3-1.7,0.6-2.6,0.8c-0.9,0.3-2,0.6-2.9,0.9c-1.7,0.5-3.3,0.9-5,1.3c-0.6,0.2-1.3,0.3-1.9,0.5
			l-1.1,0.2c-0.9,0.2-1.8,0.4-2.7,0.6s-1.6,0.3-2.5,0.5s-1.5,0.3-2.3,0.4s-1.7,0.3-2.5,0.4c-0.4,0.1-0.8,0.1-1.2,0.2l-1.9,0.2
			l-1.1,0.1c-0.7,0.1-1.4,0.2-2.1,0.2c-0.9,0.1-1.7,0.2-2.6,0.2c-0.7,0-1.3,0.1-2,0.2c-0.7,0-1.2,0.1-1.8,0.1h-0.1
			c-0.7,0-1.4,0.1-2,0.1c-0.9,0-1.9,0.1-2.8,0.1c-0.9,0-1.9,0-2.9,0s-1.9,0-2.9,0s-1.9,0-2.8-0.1c-0.7,0-1.4-0.1-2.1-0.1h-0.1
			c-0.6,0-1.2-0.1-1.8-0.1s-1.3-0.1-2-0.2c-0.9-0.1-1.7-0.1-2.6-0.2c-0.7-0.1-1.4-0.1-2.1-0.2l-1-0.1c-0.6-0.1-1.3-0.2-1.9-0.2
			c-0.4,0-0.8-0.1-1.2-0.2c-0.8-0.1-1.7-0.2-2.5-0.4c-0.8-0.1-1.5-0.3-2.3-0.4s-1.6-0.3-2.5-0.5c-0.8-0.2-1.8-0.4-2.7-0.6l-1.1-0.2
			c-0.6-0.1-1.3-0.3-1.9-0.5c-1.7-0.4-3.3-0.9-5-1.3l-3-0.9c-0.9-0.3-1.7-0.5-2.6-0.8c-2.2-0.7-4.3-1.5-6.5-2.3s-4.3-1.7-6.3-2.6
			c-1-0.5-2.1-0.9-3.1-1.4s-2.1-1-3.1-1.5s-2-1-3-1.5l-0.1-0.1c-1-0.5-2-1.1-3-1.6s-2-1.1-3-1.7s-1.8-1.1-2.7-1.6l-0.3-0.2
			c-0.9-0.5-1.8-1.1-2.6-1.7l-0.5-0.3c-0.8-0.5-1.7-1.1-2.5-1.7s-1.9-1.3-2.8-2c-0.9-0.7-1.8-1.3-2.8-2c-0.9-0.7-1.7-1.3-2.5-1.9
			l-0.2-0.2c-0.8-0.6-1.5-1.2-2.3-1.8l-0.4-0.3c45.7,22.8,69.4-7.2,81.1-35.4c5-12.3,8.5-25.2,10.5-38.4c2,13.2,5.5,26,10.5,38.4
			C172.9,415.2,196.5,445.1,242.2,422.4z"/>
		<path class="st8" d="M184,451.8c1.7-0.4,3.4-0.9,5-1.3C187.4,451,185.7,451.4,184,451.8z"/>
		<path class="st8" d="M194.6,448.8c2.2-0.7,4.3-1.5,6.5-2.3C199,447.3,196.8,448,194.6,448.8z"/>
		<path class="st8" d="M201.1,446.4c2.1-0.8,4.2-1.7,6.3-2.6C205.4,444.8,203.2,445.6,201.1,446.4z"/>
		<path class="st4" d="M301.4,298.5c0,48.8-23.2,94.4-59.1,123.9c-45.7,22.8-69.4-7.2-81.1-35.4c-5-12.3-8.5-25.2-10.5-38.4
			l146.2-86.5C299.9,274,301.4,286.3,301.4,298.5z"/>
	</g>
</g>
<g>
	<g>
		<g>
			<g>
				<path d="M236.4,504.4h3.2v-18.6h-3.2V504.4z"/>
			</g>
			<rect x="236.4" y="480.3" width="3.2" height="3.2"/>
			<g>
				<path d="M91.8,480.1c-3.3,0-7,1.3-7,4.7c0,2.8,3.3,3.8,7.3,4.3c5.3,0.8,10.6,2,10.6,8s-5.8,8-11,8c-4.8,0-9.3-1.7-11.3-6.1
					l2.8-1.7c1.7,3.2,5.3,4.7,8.6,4.7s7.6-1,7.6-5c0-3.3-3.7-4.3-7.6-4.8c-5.1-0.8-10.1-2-10.1-7.5c0-5.6,5.6-7.5,10.3-7.5
					c4,0,7.8,0.8,10.1,4.8l-2.5,1.5C97.8,481.1,94.8,480.1,91.8,480.1z"/>
			</g>
			<g>
				<path d="M108.3,477.8v11c1.7-2.5,4.2-3.3,6.5-3.3c5.3,0,8,3.5,8,8.6v10.5h-3.2v-10.3c0-3.7-2-5.8-5.3-5.8s-6,2.7-6,6.1v10h-3.2
					v-26.8H108.3L108.3,477.8z"/>
			</g>
			<g>
				<path d="M142.2,504.5V501c-1.5,2.7-4.3,3.8-7,3.8c-5.5,0-9.6-3.8-9.6-10s4.3-9.8,9.6-9.8c2.8,0,5.6,1.3,7,3.8v-3.5h3v18.9
					L142.2,504.5L142.2,504.5z M135.2,488.3c-3.8,0-6.8,2.7-6.8,6.8c0,4.2,3,7,6.8,7C144.3,502.1,144.3,488.1,135.2,488.3
					L135.2,488.3z"/>
			</g>
			<g>
				<path d="M148.2,485.6h3l0.2,3.7c1.5-2.5,4.3-4,7.3-4c5.5,0.2,9.5,4,9.5,9.8c0,6-4,9.8-9.6,9.8c-2.7,0-5.6-1.2-7.1-3.8v12.3h-3
					v-27.7L148.2,485.6L148.2,485.6z M164.8,495.1c0-4.3-2.8-6.8-6.6-6.8c-4,0-6.6,2.8-6.6,6.8c0,3.8,2.8,6.8,6.6,6.8
					S164.8,499.4,164.8,495.1z"/>
			</g>
			<g>
				<path d="M188,501.4c-2,2.3-5.1,3.3-8.1,3.3c-5.8,0-10-3.8-10-9.8c0-5.6,4.2-9.8,9.8-9.8c5.8,0,10.1,3.5,9.5,11.1h-16.1
					c0.3,3.5,3.2,5.6,6.8,5.6c2.2,0,4.8-0.8,6-2.3L188,501.4L188,501.4z M186.2,493.6c-0.2-3.7-2.7-5.6-6.3-5.6
					c-3.3,0-6.1,2-6.6,5.6H186.2L186.2,493.6z"/>
			</g>
			<g>
				<path d="M202.3,480.1c-3.3,0-7,1.3-7,4.7c0,2.8,3.3,3.8,7.3,4.3c5.3,0.8,10.6,2,10.6,8s-5.8,8-11,8c-4.8,0-9.3-1.7-11.3-6.1
					l2.8-1.7c1.7,3.2,5.3,4.7,8.6,4.7s7.6-1,7.6-5c0-3.3-3.7-4.3-7.6-4.8c-5.1-0.8-10.1-2-10.1-7.5c0-5.6,5.6-7.5,10.3-7.5
					c4,0,7.8,0.8,10.1,4.8l-2.5,1.5C208.3,481.1,205.3,480.1,202.3,480.1z"/>
			</g>
			<g>
				<path d="M218.7,477.6v11c1.7-2.5,4.2-3.3,6.5-3.3c5.3,0,8,3.5,8,8.6v10.5H230v-10.3c0-3.7-2-5.8-5.3-5.8s-6,2.7-6,6.1v10h-3.2
					v-26.7L218.7,477.6L218.7,477.6z"/>
			</g>
			<g>
				<path d="M245.3,504.5L245.3,504.5L245.3,504.5z"/>
				<path d="M249.1,484.3c0-2.8,1.3-4.2,3.3-4.2c0,0,0,0,0.2,0l0.7-2.7c-0.3,0-0.7,0-0.8,0c-4,0-6.3,2.5-6.3,6.8v1.5h-3.7v2.8h3.7
					v15.9h3.2v-15.9h3.8v-2.7h-3.8v-1.5H249.1z"/>
			</g>
			<path d="M265.1,501.7c-0.2,0-0.5,0-0.7,0c-2.3,0-3-1.5-3-3.7v-9.8h4v-2.7h-4v-5.7l-3.2,0.3v5.5h-3.8v2.7h3.8v9.8
				c0,4.2,2,6.5,6,6.5c0.5,0,1,0,1.5-0.2L265.1,501.7z"/>
		</g>
	</g>
	<g>
		<path d="M44,490.8c1-0.3,2-1,2.7-1.8c1-1.2,1.3-2.5,1.3-4s-0.3-2.7-0.8-3.5c-0.5-1-1.3-1.7-2.2-2.3c-0.8-0.5-1.8-1-3-1.2
			c-1-0.2-2.2-0.3-3.2-0.3h-8.5v28.1h8.5c1.7,0,3-0.2,4.3-0.5s2.3-0.8,3.3-1.7c0.8-0.7,1.7-1.5,2.2-2.5s0.7-2,0.7-3.3
			c0-2.2-0.7-3.8-1.8-5C46.7,491.8,45.3,491.1,44,490.8z M44.2,487.1c-0.3,0.5-0.8,1-1.3,1.3s-1.2,0.7-1.8,0.8
			c-0.7,0.2-1.3,0.2-2,0.2h-5.4v-9h4.5c0.8,0,1.7,0,2.5,0.2s1.5,0.5,2,0.8s1,0.8,1.3,1.3s0.5,1.3,0.5,2.2
			C44.7,485.9,44.5,486.6,44.2,487.1z M33.9,492.4h5.5c2.2,0,3.8,0.5,5,1.3s1.7,2.2,1.7,3.8c0,0.8-0.2,1.7-0.5,2.3
			c-0.3,0.7-0.8,1.2-1.5,1.5c-0.7,0.3-1.5,0.7-2.3,0.8c-0.8,0.2-1.8,0.3-2.8,0.3h-5C33.9,502.6,33.9,492.4,33.9,492.4z"/>
		<path d="M66.9,486.8l-5.5,14.9l-6-14.9h-3.7l7.8,18.4l-1.5,3.7c-0.3,1-0.8,1.8-1.3,2.3s-1.2,0.7-2,0.7c-0.7,0-1.3-0.2-1.8-0.3
			l-0.3-0.2l-0.3,3h0.3c0.8,0.2,1.7,0.2,2.5,0.2c1.7,0,3-0.5,3.8-1.3s1.7-2,2.2-3.5l9.1-23.3h-3.3C66.9,486.5,66.9,486.8,66.9,486.8
			z"/>
	</g>
</g>
</svg>
